<svg height="512" viewBox="0 0 60 54" width="512" xmlns="http://www.w3.org/2000/svg"><g id="032---Monkey" fill="none"><g id="Icons" transform="translate(1)"><path id="Shape" d="m12.82 9.26c-3.25037675 4.4339438-4.50766958 10.0211068-3.47 15.42-.89984413.9578286-1.68821051 2.0145751-2.35 3.15-4-.89-7-5.18-7-10.33 0-7.5 3.5-10.5 8-10.5 1.81627545.17826312 3.5170065.97217285 4.82 2.25z" fill="#ffe0b2"/><path id="Shape" d="m58 17.5c0 5.16-3 9.45-7 10.33-.6631707-1.1370913-1.4550511-2.1940504-2.36-3.15 1.0505431-5.4022548-.2077811-10.9976275-3.47-15.43 1.3101866-1.27323829 3.0123289-2.06616171 4.83-2.25 4.5 0 8 3 8 10.5z" fill="#dfc49c"/><path id="Shape" d="m55 17.5c.1224139 3.6880518-1.6125527 7.191783-4.62 9.33-.5192069-.7610632-1.0976695-1.4799619-1.73-2.15 1.0505431-5.4022548-.2077811-10.9976275-3.47-15.43 1.0357809-.95030336 2.2683821-1.6605002 3.61-2.08 3.6.74 6.21 3.83 6.21 10.33z" fill="#ffe0b2"/><path id="Shape" d="m53 35c0 11.51-13.52 18.69-25.5 18-18.77-.91-28.84-17-18.15-28.32-1.49859779-7.9048207 1.8854366-15.93804308 8.5884932-20.38787656 6.7030567-4.44983348 15.4199569-4.44983348 22.1230136 0 6.7030566 4.44983348 10.087091 12.48305586 8.5884932 20.38787656 2.7279711 2.7493908 4.2867281 6.4474075 4.35 10.32z" fill="#783e22"/><path id="Shape" d="m27.5 53c-18.77-.91-28.84-17-18.15-28.32-1.04508128-5.5875057.33683142-11.3557508 3.8003659-15.86311637 3.4635345-4.50736555 8.6814377-7.32797184 14.3496341-7.75688363 5.6681964.42891179 10.8860996 3.24951808 14.3496341 7.75688363 3.4635345 4.50736557 4.8454472 10.27561067 3.8003659 15.86311637 10.69 11.32.63 27.41-18.15 28.32z" fill="#a0522d"/><path id="Shape" d="m48 37c0 8.81-8.76 16.67-20.5 16-9.79-.69-17.5-7.59-17.5-16 .1024545-4.6806849 2.3845247-9.045098 6.17-11.8-2.89-5.9-.17-13.71 5.32-15 2.9260893-.60764899 5.921429.6686608 7.51 3.2 4.77-6.84 14-2.67 14 6.6.0106378 1.7997669-.3895176 3.5782351-1.17 5.2 3.7854753 2.754902 6.0675455 7.1193151 6.17 11.8z" fill="#ffe0b2"/><path id="Shape" d="m48 37c0 8.81-8.76 16.67-20.5 16 16.39-1.11 23.61-18.3 11.33-27.8 2.77-5.65.5-13.61-5.4-15 4.57-1.1 9.57 2.96 9.57 9.8.0106378 1.7997669-.3895176 3.5782351-1.17 5.2 3.7854753 2.754902 6.0675455 7.1193151 6.17 11.8z" fill="#dfc49c"/><path id="Shape" d="m26 19v6c-.8405796-.6952889-1.9103629-1.0518834-3-1-1.0896371-.0518834-2.1594204.3047111-3 1v-6c0-1.6568542 1.3431458-3 3-3s3 1.3431458 3 3z" fill="#37474f"/><path id="Shape" d="m38 19v6c-.8405796-.6952889-1.9103629-1.0518834-3-1-1.0896371-.0518834-2.1594204.3047111-3 1v-6c0-1.6568542 1.3431458-3 3-3s3 1.3431458 3 3z" fill="#37474f"/><g fill="#ecf0f1"><circle id="Oval" cx="22.5" cy="18.5" r="1.5"/><circle id="Oval" cx="34.5" cy="18.5" r="1.5"/></g></g><g id="Layer_2" fill="#000"><path id="Shape" d="m51 6c-1.7081483.1081593-3.3387421.75199891-4.66 1.84-3.9867593-4.93846465-9.993136-7.80892726-16.34-7.80892726s-12.3532407 2.87046261-16.34 7.80892726c-1.3212579-1.08800109-2.9518517-1.7318407-4.66-1.84-2.71 0-9 1.12-9 11.5 0 5 2.69 9.4 6.55 10.92-6.12 12.58 6.33 25.58 23.45 25.58s29.55-13 23.45-25.58c3.86-1.52 6.55-5.89 6.55-10.92 0-10.38-6.29-11.5-9-11.5zm-49 11.5c0-6.13 2.49-9.5 7-9.5 1.2780701.12775569 2.489343.63245273 3.48 1.45-.5627412.8775828-1.0575183 1.7969321-1.48 2.75-1.69777951-.5315929-3.50663934-.6006333-5.24-.2-.55228474.1325483-.89254832.6877153-.75999999 1.24.13254834.5522847.68771524.8925483 1.23999999.76 1.31877461-.31554 2.69675209-.2845355 4 .09-.91792007 2.4873448-1.33920106 5.1305433-1.24 7.78-1.76499878-.4557202-2.9986403-2.0471177-3-3.87 0-.5522847-.44771525-1-1-1s-1 .4477153-1 1c.00521478 3.0120822 2.24281941 5.5534534 5.23 5.94v.43c-.64187111.7167675-1.22697189 1.4824136-1.75 2.29-3.19-1.11-5.48-4.83-5.48-9.16zm10 19.5c.112404-4.365694 2.2484823-8.4308949 5.78-11 .3763074-.2892297.4974712-.8031314.29-1.23-2.92-5.97.45-13.77 5.93-13.77 2.1162407.08286 4.0549585 1.2056694 5.18 3 .1870412.2679657.4932125.4276365.82.4276365s.6329588-.1596708.82-.4276365c4.26-6.13 12.18-2.21 12.18 6 .0089616 1.6472834-.3569372 3.2750204-1.07 4.76-.2130255.4294159-.0913704.949596.29 1.24 3.5315177 2.5691051 5.667596 6.634306 5.78 11 0 8.27-8.07 15-18 15s-18-6.73-18-15zm33.91 10.26c6.27-7 5.08-16.52-1.85-22.35 2.94-7.29-1.39-15.91-8.06-15.91-2.306976.03849452-4.4886437 1.0566061-6 2.8-1.5113563-1.7433939-3.693024-2.76150548-6-2.8-6.69 0-11 8.63-8.06 15.91-6.94 5.84-8.11 15.35-1.85 22.35-8.17-5.8-9.43-15.08-3-21.89.64-.68-.08-1.09-.08-4.37 0-10.4934102 8.5065898-19 19-19s19 8.5065898 19 19c0 3.27-.71 3.69-.08 4.37 6.42 6.83 5.13 16.11-3.02 21.89zm6.56-20.6c-.5230281-.8075864-1.1081289-1.5732325-1.75-2.29 0-.14 0-.28.05-.43 2.9871806-.3865466 5.2247852-2.9279178 5.23-5.94 0-.5522847-.4477153-1-1-1s-1 .4477153-1 1c-.0013597 1.8228823-1.2350012 3.4142798-3 3.87.1266646-2.6540859-.267411-5.3073013-1.16-7.81 1.3032479-.3745355 2.6812254-.40554 4-.09.5188447.101567 1.0271008-.2182837 1.16-.73.071912-.2656553.0311592-.5492047-.1126584-.7838545-.1438177-.2346498-.3779853-.3996547-.6473416-.4561455-1.7179718-.4031314-3.512027-.3444796-5.2.17-.435355-.9543099-.9435227-1.8736923-1.52-2.75.9942386-.80674117 2.205187-1.30086377 3.48-1.42 4.51 0 7 3.37 7 9.5 0 4.33-2.29 8.05-5.53 9.16z"/><path id="Shape" d="m21.7 25.72c1.3777852-.9651707 3.2122148-.9651707 4.59 0 .2873627.2898332.722025.3759443 1.0981838.2175616.3761589-.1583827.6183164-.5294705.6118162-.9375616v-6c0-2.209139-1.790861-4-4-4s-4 1.790861-4 4v6c-.0023715.4037087.2382408.7692453.6099894.9266917.3717485.1574465.8017067.0759163 1.0900106-.2066917zm.3-6.72c0-1.1045695.8954305-2 2-2s2 .8954305 2 2v4.31c-1.3002935-.4197767-2.6997065-.4197767-4 0z"/><path id="Shape" d="m33.7 25.72c1.3777852-.9651707 3.2122148-.9651707 4.59 0 .2873627.2898332.722025.3759443 1.0981838.2175616.3761589-.1583827.6183164-.5294705.6118162-.9375616v-6c0-2.209139-1.790861-4-4-4s-4 1.790861-4 4v6c-.0023715.4037087.2382408.7692453.6099894.9266917.3717485.1574465.8017067.0759163 1.0900106-.2066917zm.3-6.72c0-1.1045695.8954305-2 2-2s2 .8954305 2 2v4.31c-1.3002935-.4197767-2.6997065-.4197767-4 0z"/><path id="Shape" d="m26 31v1c0 .5522847.4477153 1 1 1s1-.4477153 1-1v-1c0-1.1045695.8954305-2 2-2s2 .8954305 2 2v1c0 .5522847.4477153 1 1 1s1-.4477153 1-1v-1c0-2.209139-1.790861-4-4-4s-4 1.790861-4 4z"/><path id="Shape" d="m40.28 38.31c-4.72 4.92-15.85 4.92-20.56 0-.3892557-.3500669-.9826214-.3406662-1.3605923.0215559s-.4126012.954651-.0794077 1.3584441c5.5 5.75 17.94 5.74 23.44 0 .3331935-.4037931.2985632-.996222-.0794077-1.3584441s-.9713366-.3716228-1.3605923-.0215559z"/><path id="Shape" d="m30 46c-.5522847 0-1 .4477153-1 1v2c0 .5522847.4477153 1 1 1s1-.4477153 1-1v-2c0-.5522847-.4477153-1-1-1z"/></g></g></svg>